<?xml version="1.0" standalone="no"?>
<!DOCTYPE svg PUBLIC "-//W3C//DTD SVG 20010904//EN"
 "http://www.w3.org/TR/2001/REC-SVG-20010904/DTD/svg10.dtd">
<svg version="1.0" xmlns="http://www.w3.org/2000/svg"
 width="2100.000000pt" height="1500.000000pt" viewBox="0 0 2100.000000 1500.000000"
 preserveAspectRatio="xMidYMid meet">

<g transform="translate(0.000000,1500.000000) scale(0.100000,-0.100000)"
fill="#000000" stroke="none">
<path d="M12294 8028 c-30 -61 -282 -526 -289 -536 -2 -2 -24 11 -51 28 -113
72 -127 74 -470 80 -333 5 -335 6 -355 58 -12 31 12 77 51 97 25 13 84 15 386
15 197 -1 361 3 365 7 5 5 40 61 78 126 l70 118 -492 -3 -492 -3 -58 -28 c-72
-36 -151 -112 -180 -174 -31 -68 -31 -198 0 -266 33 -71 120 -150 201 -182 83
-34 88 -34 418 -34 l271 -1 27 -25 c37 -34 35 -76 -5 -109 -30 -25 -34 -26
-177 -26 l-147 0 -76 -128 -75 -127 365 -3 c289 -2 368 0 374 10 29 48 277
511 341 638 43 85 90 174 103 197 14 23 23 48 21 55 -7 29 -150 288 -159 288
-5 0 -25 -33 -45 -72z"/>
<path d="M10275 7879 c-63 -82 -115 -152 -115 -154 0 -3 99 -5 219 -5 l220 0
111 146 c61 80 110 147 108 149 -2 1 -99 5 -216 8 l-213 5 -114 -149z"/>
<path d="M8909 7888 c-56 -73 -106 -139 -112 -145 -7 -10 40 -13 229 -13 l239
0 33 74 c37 82 85 143 145 187 l40 29 -236 0 -236 0 -102 -132z"/>
<path d="M9588 8006 c-102 -36 -191 -117 -236 -214 -22 -46 -27 -71 -27 -132
1 -173 105 -277 307 -310 35 -5 229 -10 431 -10 386 0 414 -3 431 -45 12 -31
6 -73 -13 -96 l-19 -24 -371 -3 -371 -3 0 -145 0 -145 398 3 c349 4 404 6 452
22 165 54 236 131 260 279 24 151 -29 267 -149 327 -87 44 -152 50 -542 50
-202 0 -380 3 -397 6 -50 10 -74 39 -70 87 3 37 7 44 38 59 29 15 63 18 205
18 l170 0 105 137 c58 75 107 140 108 145 6 14 -667 9 -710 -6z"/>
<path d="M12467 7628 c-36 -68 -73 -139 -82 -158 l-16 -35 109 -200 c60 -110
124 -228 142 -262 l33 -63 169 0 170 0 -25 43 c-25 45 -85 154 -297 547 -73
135 -134 246 -135 248 -2 2 -32 -52 -68 -120z"/>
<path d="M9320 7175 l0 -295 175 0 175 0 0 205 0 205 -27 5 c-145 30 -222 65
-283 132 l-40 43 0 -295z"/>
<path d="M11151 7170 l-164 -5 -89 -138 c-50 -76 -88 -140 -86 -141 4 -4 390
14 404 18 10 4 174 257 174 270 0 3 -17 5 -37 4 -21 -1 -112 -5 -202 -8z"/>
</g>
</svg>
